<mxfile host="app.diagrams.net" modified="2020-09-07T12:28:54.397Z" agent="5.0 (Windows NT 10.0; Win64; x64) AppleWebKit/537.36 (KHTML, like Gecko) Chrome/85.0.4183.83 Safari/537.36" etag="l_dbbYAgZexH9zVNaPBF" version="13.6.6" type="github">
  <diagram id="heBprJmPIhfamDf58Z1P" name="第 1 页">
    <mxGraphModel dx="1038" dy="548" grid="1" gridSize="10" guides="1" tooltips="1" connect="1" arrows="1" fold="1" page="1" pageScale="1" pageWidth="827" pageHeight="1169" math="0" shadow="0">
      <root>
        <mxCell id="0" />
        <mxCell id="1" parent="0" />
        <mxCell id="_UQgza68TpKPNs5CrHff-68" value="" style="rounded=0;whiteSpace=wrap;html=1;fontSize=16;fillColor=#b1ddf0;strokeColor=#10739e;" parent="1" vertex="1">
          <mxGeometry x="221" y="370" width="1099" height="780" as="geometry" />
        </mxCell>
        <mxCell id="_UQgza68TpKPNs5CrHff-33" value="" style="edgeStyle=orthogonalEdgeStyle;rounded=0;orthogonalLoop=1;jettySize=auto;html=1;fontSize=17;fontColor=#000000;" parent="1" source="_UQgza68TpKPNs5CrHff-8" target="_UQgza68TpKPNs5CrHff-12" edge="1">
          <mxGeometry relative="1" as="geometry">
            <Array as="points">
              <mxPoint x="555" y="520" />
              <mxPoint x="555" y="520" />
            </Array>
          </mxGeometry>
        </mxCell>
        <mxCell id="_UQgza68TpKPNs5CrHff-8" value="" style="rounded=0;whiteSpace=wrap;html=1;fillColor=#dae8fc;strokeColor=#6c8ebf;" parent="1" vertex="1">
          <mxGeometry x="310" y="390" width="810" height="110" as="geometry" />
        </mxCell>
        <mxCell id="_UQgza68TpKPNs5CrHff-3" value="" style="edgeStyle=orthogonalEdgeStyle;rounded=0;orthogonalLoop=1;jettySize=auto;html=1;" parent="1" source="_UQgza68TpKPNs5CrHff-1" target="_UQgza68TpKPNs5CrHff-2" edge="1">
          <mxGeometry relative="1" as="geometry" />
        </mxCell>
        <mxCell id="_UQgza68TpKPNs5CrHff-1" value="KafkaProducer" style="rounded=0;whiteSpace=wrap;html=1;" parent="1" vertex="1">
          <mxGeometry x="375" y="410" width="120" height="60" as="geometry" />
        </mxCell>
        <mxCell id="_UQgza68TpKPNs5CrHff-5" value="" style="edgeStyle=orthogonalEdgeStyle;rounded=0;orthogonalLoop=1;jettySize=auto;html=1;" parent="1" source="_UQgza68TpKPNs5CrHff-2" target="_UQgza68TpKPNs5CrHff-4" edge="1">
          <mxGeometry relative="1" as="geometry" />
        </mxCell>
        <mxCell id="_UQgza68TpKPNs5CrHff-2" value="KafkaInterceptors" style="rounded=0;whiteSpace=wrap;html=1;" parent="1" vertex="1">
          <mxGeometry x="565" y="410" width="120" height="60" as="geometry" />
        </mxCell>
        <mxCell id="_UQgza68TpKPNs5CrHff-7" value="" style="edgeStyle=orthogonalEdgeStyle;rounded=0;orthogonalLoop=1;jettySize=auto;html=1;" parent="1" source="_UQgza68TpKPNs5CrHff-4" target="_UQgza68TpKPNs5CrHff-6" edge="1">
          <mxGeometry relative="1" as="geometry" />
        </mxCell>
        <mxCell id="_UQgza68TpKPNs5CrHff-4" value="Serializer" style="rounded=0;whiteSpace=wrap;html=1;" parent="1" vertex="1">
          <mxGeometry x="745" y="410" width="120" height="60" as="geometry" />
        </mxCell>
        <mxCell id="_UQgza68TpKPNs5CrHff-6" value="Partition" style="rounded=0;whiteSpace=wrap;html=1;" parent="1" vertex="1">
          <mxGeometry x="945" y="410" width="120" height="60" as="geometry" />
        </mxCell>
        <mxCell id="_UQgza68TpKPNs5CrHff-9" value="1" style="ellipse;whiteSpace=wrap;html=1;aspect=fixed;fillColor=#ffe6cc;strokeColor=#d79b00;fontSize=13;fontStyle=1;fontColor=#FF3333;" parent="1" vertex="1">
          <mxGeometry x="520" y="410" width="20" height="20" as="geometry" />
        </mxCell>
        <mxCell id="_UQgza68TpKPNs5CrHff-10" value="2" style="ellipse;whiteSpace=wrap;html=1;aspect=fixed;fillColor=#ffe6cc;strokeColor=#d79b00;fontSize=13;fontStyle=1;fontColor=#FF3333;" parent="1" vertex="1">
          <mxGeometry x="705" y="410" width="20" height="20" as="geometry" />
        </mxCell>
        <mxCell id="_UQgza68TpKPNs5CrHff-11" value="3" style="ellipse;whiteSpace=wrap;html=1;aspect=fixed;fillColor=#ffe6cc;strokeColor=#d79b00;fontSize=13;fontStyle=1;fontColor=#FF3333;" parent="1" vertex="1">
          <mxGeometry x="900" y="410" width="20" height="20" as="geometry" />
        </mxCell>
        <mxCell id="_UQgza68TpKPNs5CrHff-47" value="" style="edgeStyle=orthogonalEdgeStyle;rounded=0;orthogonalLoop=1;jettySize=auto;html=1;fontSize=17;fontColor=#000000;entryX=0;entryY=0.5;entryDx=0;entryDy=0;" parent="1" source="_UQgza68TpKPNs5CrHff-12" target="_UQgza68TpKPNs5CrHff-35" edge="1">
          <mxGeometry relative="1" as="geometry">
            <mxPoint x="260" y="690" as="sourcePoint" />
            <mxPoint x="230" y="715" as="targetPoint" />
            <Array as="points">
              <mxPoint x="290" y="715" />
              <mxPoint x="290" y="1005" />
            </Array>
          </mxGeometry>
        </mxCell>
        <mxCell id="_UQgza68TpKPNs5CrHff-48" value="&lt;font style=&quot;font-size: 14px&quot;&gt;批量发送，获取数据&lt;/font&gt;" style="edgeLabel;html=1;align=center;verticalAlign=middle;resizable=0;points=[];fontSize=17;fontColor=#000000;" parent="_UQgza68TpKPNs5CrHff-47" vertex="1" connectable="0">
          <mxGeometry x="-0.073" relative="1" as="geometry">
            <mxPoint y="17" as="offset" />
          </mxGeometry>
        </mxCell>
        <mxCell id="_UQgza68TpKPNs5CrHff-12" value="" style="rounded=0;whiteSpace=wrap;html=1;fontSize=13;fillColor=#ffe6cc;strokeColor=#d79b00;" parent="1" vertex="1">
          <mxGeometry x="310" y="550" width="610" height="290" as="geometry" />
        </mxCell>
        <mxCell id="_UQgza68TpKPNs5CrHff-19" value="" style="group" parent="1" vertex="1" connectable="0">
          <mxGeometry x="336" y="585" width="500" height="70" as="geometry" />
        </mxCell>
        <mxCell id="_UQgza68TpKPNs5CrHff-13" value="" style="rounded=0;whiteSpace=wrap;html=1;fontSize=13;fillColor=#d5e8d4;strokeColor=#82b366;" parent="_UQgza68TpKPNs5CrHff-19" vertex="1">
          <mxGeometry width="440" height="70" as="geometry" />
        </mxCell>
        <mxCell id="_UQgza68TpKPNs5CrHff-14" value="RecordBatch" style="rounded=0;whiteSpace=wrap;html=1;fontSize=13;" parent="_UQgza68TpKPNs5CrHff-19" vertex="1">
          <mxGeometry x="15" y="22" width="110" height="40" as="geometry" />
        </mxCell>
        <mxCell id="_UQgza68TpKPNs5CrHff-15" value="RecordBatch" style="rounded=0;whiteSpace=wrap;html=1;fontSize=13;" parent="_UQgza68TpKPNs5CrHff-19" vertex="1">
          <mxGeometry x="157" y="23" width="110" height="40" as="geometry" />
        </mxCell>
        <mxCell id="_UQgza68TpKPNs5CrHff-16" value="RecordBatch" style="rounded=0;whiteSpace=wrap;html=1;fontSize=13;" parent="_UQgza68TpKPNs5CrHff-19" vertex="1">
          <mxGeometry x="300" y="24" width="110" height="40" as="geometry" />
        </mxCell>
        <mxCell id="_UQgza68TpKPNs5CrHff-17" value="双端Deque" style="text;html=1;strokeColor=none;fillColor=none;align=center;verticalAlign=middle;whiteSpace=wrap;rounded=0;fontSize=13;fontStyle=1" parent="_UQgza68TpKPNs5CrHff-19" vertex="1">
          <mxGeometry x="190" y="3" width="80" height="20" as="geometry" />
        </mxCell>
        <mxCell id="WtABkWI_3HAptQARrJdj-40" value="默认16KB" style="text;html=1;strokeColor=none;fillColor=none;align=center;verticalAlign=middle;whiteSpace=wrap;rounded=0;fontSize=14;fontColor=#FF3333;" parent="_UQgza68TpKPNs5CrHff-19" vertex="1">
          <mxGeometry x="284" y="4" width="165" height="20" as="geometry" />
        </mxCell>
        <mxCell id="lW8rJA3qu8yYSHlR9bYw-1" value="仅发送给分区0" style="text;html=1;strokeColor=none;fillColor=none;align=center;verticalAlign=middle;whiteSpace=wrap;rounded=0;" vertex="1" parent="_UQgza68TpKPNs5CrHff-19">
          <mxGeometry x="436" y="15" width="55" height="20" as="geometry" />
        </mxCell>
        <mxCell id="_UQgza68TpKPNs5CrHff-20" value="" style="group" parent="1" vertex="1" connectable="0">
          <mxGeometry x="330" y="670" width="440" height="70" as="geometry" />
        </mxCell>
        <mxCell id="_UQgza68TpKPNs5CrHff-21" value="" style="rounded=0;whiteSpace=wrap;html=1;fontSize=13;fillColor=#d5e8d4;strokeColor=#82b366;" parent="_UQgza68TpKPNs5CrHff-20" vertex="1">
          <mxGeometry x="6" width="440" height="70" as="geometry" />
        </mxCell>
        <mxCell id="_UQgza68TpKPNs5CrHff-22" value="RecordBatch" style="rounded=0;whiteSpace=wrap;html=1;fontSize=13;" parent="_UQgza68TpKPNs5CrHff-20" vertex="1">
          <mxGeometry x="15" y="22" width="110" height="40" as="geometry" />
        </mxCell>
        <mxCell id="_UQgza68TpKPNs5CrHff-23" value="RecordBatch" style="rounded=0;whiteSpace=wrap;html=1;fontSize=13;" parent="_UQgza68TpKPNs5CrHff-20" vertex="1">
          <mxGeometry x="157" y="23" width="110" height="40" as="geometry" />
        </mxCell>
        <mxCell id="_UQgza68TpKPNs5CrHff-24" value="RecordBatch" style="rounded=0;whiteSpace=wrap;html=1;fontSize=13;" parent="_UQgza68TpKPNs5CrHff-20" vertex="1">
          <mxGeometry x="300" y="24" width="110" height="40" as="geometry" />
        </mxCell>
        <mxCell id="_UQgza68TpKPNs5CrHff-25" value="双端Deque" style="text;html=1;strokeColor=none;fillColor=none;align=center;verticalAlign=middle;whiteSpace=wrap;rounded=0;fontSize=13;fontStyle=1" parent="_UQgza68TpKPNs5CrHff-20" vertex="1">
          <mxGeometry x="190" y="3" width="70" height="20" as="geometry" />
        </mxCell>
        <mxCell id="_UQgza68TpKPNs5CrHff-26" value="" style="group" parent="1" vertex="1" connectable="0">
          <mxGeometry x="336" y="760" width="440" height="70" as="geometry" />
        </mxCell>
        <mxCell id="_UQgza68TpKPNs5CrHff-27" value="" style="rounded=0;whiteSpace=wrap;html=1;fontSize=13;fillColor=#d5e8d4;strokeColor=#82b366;" parent="_UQgza68TpKPNs5CrHff-26" vertex="1">
          <mxGeometry width="440" height="70" as="geometry" />
        </mxCell>
        <mxCell id="_UQgza68TpKPNs5CrHff-28" value="RecordBatch" style="rounded=0;whiteSpace=wrap;html=1;fontSize=13;" parent="_UQgza68TpKPNs5CrHff-26" vertex="1">
          <mxGeometry x="15" y="22" width="110" height="40" as="geometry" />
        </mxCell>
        <mxCell id="_UQgza68TpKPNs5CrHff-29" value="RecordBatch" style="rounded=0;whiteSpace=wrap;html=1;fontSize=13;" parent="_UQgza68TpKPNs5CrHff-26" vertex="1">
          <mxGeometry x="157" y="23" width="110" height="40" as="geometry" />
        </mxCell>
        <mxCell id="_UQgza68TpKPNs5CrHff-30" value="RecordBatch" style="rounded=0;whiteSpace=wrap;html=1;fontSize=13;" parent="_UQgza68TpKPNs5CrHff-26" vertex="1">
          <mxGeometry x="300" y="24" width="110" height="40" as="geometry" />
        </mxCell>
        <mxCell id="_UQgza68TpKPNs5CrHff-31" value="双端Deque" style="text;html=1;strokeColor=none;fillColor=none;align=center;verticalAlign=middle;whiteSpace=wrap;rounded=0;fontSize=13;fontStyle=1" parent="_UQgza68TpKPNs5CrHff-26" vertex="1">
          <mxGeometry x="190" y="3" width="80" height="20" as="geometry" />
        </mxCell>
        <mxCell id="_UQgza68TpKPNs5CrHff-32" value="RecordAccumulate" style="text;html=1;strokeColor=none;fillColor=none;align=center;verticalAlign=middle;whiteSpace=wrap;rounded=0;fontSize=17;fontColor=#000000;" parent="1" vertex="1">
          <mxGeometry x="530" y="557" width="40" height="20" as="geometry" />
        </mxCell>
        <mxCell id="_UQgza68TpKPNs5CrHff-34" value="4" style="ellipse;whiteSpace=wrap;html=1;aspect=fixed;fillColor=#ffe6cc;strokeColor=#d79b00;fontSize=13;fontStyle=1;fontColor=#FF3333;" parent="1" vertex="1">
          <mxGeometry x="570" y="510" width="20" height="20" as="geometry" />
        </mxCell>
        <mxCell id="_UQgza68TpKPNs5CrHff-35" value="" style="rounded=0;whiteSpace=wrap;html=1;fontSize=17;fillColor=#f8cecc;strokeColor=#b85450;" parent="1" vertex="1">
          <mxGeometry x="320" y="890" width="940" height="230" as="geometry" />
        </mxCell>
        <mxCell id="_UQgza68TpKPNs5CrHff-38" value="" style="edgeStyle=orthogonalEdgeStyle;rounded=0;orthogonalLoop=1;jettySize=auto;html=1;fontSize=17;fontColor=#000000;" parent="1" source="_UQgza68TpKPNs5CrHff-36" edge="1">
          <mxGeometry relative="1" as="geometry">
            <mxPoint x="510" y="990" as="targetPoint" />
          </mxGeometry>
        </mxCell>
        <mxCell id="_UQgza68TpKPNs5CrHff-43" value="" style="edgeStyle=orthogonalEdgeStyle;rounded=0;orthogonalLoop=1;jettySize=auto;html=1;fontSize=17;fontColor=#000000;entryX=0;entryY=0.75;entryDx=0;entryDy=0;exitX=0.5;exitY=0;exitDx=0;exitDy=0;" parent="1" source="_UQgza68TpKPNs5CrHff-36" edge="1">
          <mxGeometry relative="1" as="geometry">
            <mxPoint x="387.5" y="947" as="sourcePoint" />
            <mxPoint x="510" y="927" as="targetPoint" />
            <Array as="points">
              <mxPoint x="388" y="927" />
            </Array>
          </mxGeometry>
        </mxCell>
        <mxCell id="_UQgza68TpKPNs5CrHff-45" value="" style="edgeStyle=orthogonalEdgeStyle;rounded=0;orthogonalLoop=1;jettySize=auto;html=1;fontSize=17;fontColor=#000000;entryX=0;entryY=0.75;entryDx=0;entryDy=0;" parent="1" edge="1">
          <mxGeometry relative="1" as="geometry">
            <mxPoint x="387.5" y="1010" as="sourcePoint" />
            <mxPoint x="510" y="1050" as="targetPoint" />
            <Array as="points">
              <mxPoint x="388" y="1050" />
            </Array>
          </mxGeometry>
        </mxCell>
        <mxCell id="_UQgza68TpKPNs5CrHff-36" value="sender" style="ellipse;whiteSpace=wrap;html=1;fontSize=17;fontColor=#000000;" parent="1" vertex="1">
          <mxGeometry x="345" y="960" width="85" height="60" as="geometry" />
        </mxCell>
        <mxCell id="_UQgza68TpKPNs5CrHff-54" value="" style="edgeStyle=orthogonalEdgeStyle;rounded=0;orthogonalLoop=1;jettySize=auto;html=1;fontSize=17;fontColor=#000000;" parent="1" source="_UQgza68TpKPNs5CrHff-39" target="_UQgza68TpKPNs5CrHff-51" edge="1">
          <mxGeometry relative="1" as="geometry">
            <mxPoint x="710" y="990" as="targetPoint" />
            <Array as="points">
              <mxPoint x="700" y="990" />
              <mxPoint x="700" y="990" />
            </Array>
          </mxGeometry>
        </mxCell>
        <mxCell id="_UQgza68TpKPNs5CrHff-39" value="ClientRequest" style="rounded=0;whiteSpace=wrap;html=1;fontSize=17;fontColor=#000000;" parent="1" vertex="1">
          <mxGeometry x="510" y="970" width="120" height="40" as="geometry" />
        </mxCell>
        <mxCell id="_UQgza68TpKPNs5CrHff-52" value="" style="edgeStyle=orthogonalEdgeStyle;rounded=0;orthogonalLoop=1;jettySize=auto;html=1;fontSize=17;fontColor=#000000;" parent="1" source="_UQgza68TpKPNs5CrHff-40" target="_UQgza68TpKPNs5CrHff-51" edge="1">
          <mxGeometry relative="1" as="geometry">
            <Array as="points">
              <mxPoint x="720" y="930" />
              <mxPoint x="720" y="930" />
            </Array>
          </mxGeometry>
        </mxCell>
        <mxCell id="_UQgza68TpKPNs5CrHff-40" value="ClientRequest" style="rounded=0;whiteSpace=wrap;html=1;fontSize=17;fontColor=#000000;" parent="1" vertex="1">
          <mxGeometry x="510" y="910" width="120" height="40" as="geometry" />
        </mxCell>
        <mxCell id="lQDxn9rTQp-i-1dFEX7v-1" value="" style="edgeStyle=orthogonalEdgeStyle;rounded=0;orthogonalLoop=1;jettySize=auto;html=1;entryX=0.004;entryY=0.829;entryDx=0;entryDy=0;entryPerimeter=0;" parent="1" source="_UQgza68TpKPNs5CrHff-41" target="_UQgza68TpKPNs5CrHff-51" edge="1">
          <mxGeometry relative="1" as="geometry">
            <mxPoint x="720" y="1050" as="targetPoint" />
            <Array as="points">
              <mxPoint x="720" y="1050" />
            </Array>
          </mxGeometry>
        </mxCell>
        <mxCell id="_UQgza68TpKPNs5CrHff-41" value="ClientRequest" style="rounded=0;whiteSpace=wrap;html=1;fontSize=17;fontColor=#000000;" parent="1" vertex="1">
          <mxGeometry x="510" y="1030" width="120" height="40" as="geometry" />
        </mxCell>
        <mxCell id="_UQgza68TpKPNs5CrHff-49" value="5" style="ellipse;whiteSpace=wrap;html=1;aspect=fixed;fillColor=#ffe6cc;strokeColor=#d79b00;fontSize=13;fontStyle=1;fontColor=#FF3333;" parent="1" vertex="1">
          <mxGeometry x="260" y="820" width="20" height="20" as="geometry" />
        </mxCell>
        <mxCell id="_UQgza68TpKPNs5CrHff-50" value="6" style="ellipse;whiteSpace=wrap;html=1;aspect=fixed;fillColor=#ffe6cc;strokeColor=#d79b00;fontSize=13;fontStyle=1;fontColor=#FF3333;" parent="1" vertex="1">
          <mxGeometry x="440" y="900" width="20" height="20" as="geometry" />
        </mxCell>
        <mxCell id="_UQgza68TpKPNs5CrHff-51" value="" style="rounded=0;whiteSpace=wrap;html=1;fontSize=17;fillColor=#b0e3e6;strokeColor=#0e8088;" parent="1" vertex="1">
          <mxGeometry x="723" y="910" width="275" height="170" as="geometry" />
        </mxCell>
        <mxCell id="_UQgza68TpKPNs5CrHff-57" value="7" style="ellipse;whiteSpace=wrap;html=1;aspect=fixed;fillColor=#ffe6cc;strokeColor=#d79b00;fontSize=13;fontStyle=1;fontColor=#FF3333;" parent="1" vertex="1">
          <mxGeometry x="665" y="910" width="20" height="20" as="geometry" />
        </mxCell>
        <mxCell id="_UQgza68TpKPNs5CrHff-58" value="NetworkClient" style="text;html=1;strokeColor=none;fillColor=none;align=center;verticalAlign=middle;whiteSpace=wrap;rounded=0;fontSize=17;fontColor=#000000;" parent="1" vertex="1">
          <mxGeometry x="821" y="920" width="40" height="20" as="geometry" />
        </mxCell>
        <mxCell id="_UQgza68TpKPNs5CrHff-60" value="" style="rounded=0;whiteSpace=wrap;html=1;fontSize=17;fontColor=#000000;" parent="1" vertex="1">
          <mxGeometry x="741" y="950" width="239" height="120" as="geometry" />
        </mxCell>
        <mxCell id="_UQgza68TpKPNs5CrHff-61" value="ClientRequest" style="rounded=0;whiteSpace=wrap;html=1;fontSize=15;fontColor=#000000;" parent="1" vertex="1">
          <mxGeometry x="752.5" y="1035" width="105" height="30" as="geometry" />
        </mxCell>
        <mxCell id="_UQgza68TpKPNs5CrHff-62" value="ClientRequest" style="rounded=0;whiteSpace=wrap;html=1;fontSize=15;fontColor=#000000;" parent="1" vertex="1">
          <mxGeometry x="865" y="1035" width="105" height="30" as="geometry" />
        </mxCell>
        <mxCell id="_UQgza68TpKPNs5CrHff-63" value="ClientRequest" style="rounded=0;whiteSpace=wrap;html=1;fontSize=15;fontColor=#000000;" parent="1" vertex="1">
          <mxGeometry x="865" y="1000" width="105" height="30" as="geometry" />
        </mxCell>
        <mxCell id="_UQgza68TpKPNs5CrHff-64" value="ClientRequest" style="rounded=0;whiteSpace=wrap;html=1;fontSize=15;fontColor=#000000;" parent="1" vertex="1">
          <mxGeometry x="865" y="960" width="105" height="30" as="geometry" />
        </mxCell>
        <mxCell id="_UQgza68TpKPNs5CrHff-65" value="ClientRequest" style="rounded=0;whiteSpace=wrap;html=1;fontSize=15;fontColor=#000000;" parent="1" vertex="1">
          <mxGeometry x="752.5" y="995" width="105" height="30" as="geometry" />
        </mxCell>
        <mxCell id="_UQgza68TpKPNs5CrHff-66" value="InFlightRequest" style="text;html=1;strokeColor=none;fillColor=none;align=center;verticalAlign=middle;whiteSpace=wrap;rounded=0;fontSize=16;fontColor=#FF3333;fontStyle=1" parent="1" vertex="1">
          <mxGeometry x="781" y="940" width="40" height="20" as="geometry" />
        </mxCell>
        <mxCell id="WtABkWI_3HAptQARrJdj-16" value="" style="edgeStyle=orthogonalEdgeStyle;rounded=0;orthogonalLoop=1;jettySize=auto;html=1;entryX=0.353;entryY=1;entryDx=0;entryDy=0;entryPerimeter=0;" parent="1" source="_UQgza68TpKPNs5CrHff-67" target="_UQgza68TpKPNs5CrHff-51" edge="1">
          <mxGeometry relative="1" as="geometry">
            <mxPoint x="1155" y="1215" as="targetPoint" />
            <Array as="points">
              <mxPoint x="1155" y="1100" />
              <mxPoint x="820" y="1100" />
            </Array>
          </mxGeometry>
        </mxCell>
        <mxCell id="WtABkWI_3HAptQARrJdj-17" value="&lt;font style=&quot;font-size: 14px&quot; color=&quot;#ff3333&quot;&gt;ClientResponse&lt;/font&gt;" style="edgeLabel;html=1;align=center;verticalAlign=middle;resizable=0;points=[];" parent="WtABkWI_3HAptQARrJdj-16" vertex="1" connectable="0">
          <mxGeometry x="0.0936" relative="1" as="geometry">
            <mxPoint as="offset" />
          </mxGeometry>
        </mxCell>
        <mxCell id="_UQgza68TpKPNs5CrHff-67" value="" style="rounded=0;whiteSpace=wrap;html=1;fontSize=16;fillColor=#ffcc99;strokeColor=#36393d;" parent="1" vertex="1">
          <mxGeometry x="1090" y="910" width="130" height="170" as="geometry" />
        </mxCell>
        <mxCell id="8up4lZUDMtvh6PAs1ZW6-8" value="" style="edgeStyle=orthogonalEdgeStyle;rounded=0;orthogonalLoop=1;jettySize=auto;html=1;fontSize=14;fontColor=#FF3333;entryX=0.981;entryY=0;entryDx=0;entryDy=0;entryPerimeter=0;exitX=0.921;exitY=0.509;exitDx=0;exitDy=0;exitPerimeter=0;" parent="1" source="8up4lZUDMtvh6PAs1ZW6-1" edge="1">
          <mxGeometry relative="1" as="geometry">
            <mxPoint x="1217" y="664" as="sourcePoint" />
            <mxPoint x="1215.1399999999999" y="890" as="targetPoint" />
            <Array as="points">
              <mxPoint x="1243" y="664" />
              <mxPoint x="1243" y="840" />
              <mxPoint x="1215" y="840" />
            </Array>
          </mxGeometry>
        </mxCell>
        <mxCell id="8up4lZUDMtvh6PAs1ZW6-9" value="ClientResponse" style="edgeLabel;html=1;align=center;verticalAlign=middle;resizable=0;points=[];fontSize=14;fontColor=#FF3333;" parent="8up4lZUDMtvh6PAs1ZW6-8" vertex="1" connectable="0">
          <mxGeometry x="-0.0201" y="-3" relative="1" as="geometry">
            <mxPoint as="offset" />
          </mxGeometry>
        </mxCell>
        <mxCell id="8up4lZUDMtvh6PAs1ZW6-1" value="kafka集群" style="ellipse;shape=cloud;whiteSpace=wrap;html=1;fontSize=16;gradientColor=#97d077;fillColor=#d5e8d4;strokeColor=#82b366;" parent="1" vertex="1">
          <mxGeometry x="1033" y="610" width="191" height="108" as="geometry" />
        </mxCell>
        <mxCell id="8up4lZUDMtvh6PAs1ZW6-3" value="" style="endArrow=classic;html=1;fontSize=16;fontColor=#FF3333;" parent="1" edge="1">
          <mxGeometry width="50" height="50" relative="1" as="geometry">
            <mxPoint x="1111" y="889" as="sourcePoint" />
            <mxPoint x="1111" y="718" as="targetPoint" />
          </mxGeometry>
        </mxCell>
        <mxCell id="8up4lZUDMtvh6PAs1ZW6-4" value="&lt;font color=&quot;#000000&quot; style=&quot;font-size: 14px;&quot;&gt;执行网络请求&lt;/font&gt;" style="edgeLabel;html=1;align=center;verticalAlign=middle;resizable=0;points=[];fontSize=14;fontColor=#FF3333;" parent="8up4lZUDMtvh6PAs1ZW6-3" vertex="1" connectable="0">
          <mxGeometry x="0.2047" y="1" relative="1" as="geometry">
            <mxPoint as="offset" />
          </mxGeometry>
        </mxCell>
        <mxCell id="WtABkWI_3HAptQARrJdj-1" value="" style="edgeStyle=orthogonalEdgeStyle;rounded=0;orthogonalLoop=1;jettySize=auto;html=1;fontSize=17;fontColor=#000000;exitX=1;exitY=0.25;exitDx=0;exitDy=0;" parent="1" source="_UQgza68TpKPNs5CrHff-51" edge="1">
          <mxGeometry relative="1" as="geometry">
            <Array as="points">
              <mxPoint x="998" y="949" />
            </Array>
            <mxPoint x="1009.5" y="949" as="sourcePoint" />
            <mxPoint x="1102.5" y="949" as="targetPoint" />
          </mxGeometry>
        </mxCell>
        <mxCell id="WtABkWI_3HAptQARrJdj-7" value="RequestSend" style="edgeLabel;html=1;align=center;verticalAlign=middle;resizable=0;points=[];" parent="WtABkWI_3HAptQARrJdj-1" vertex="1" connectable="0">
          <mxGeometry x="-0.4352" relative="1" as="geometry">
            <mxPoint x="15.5" y="-4" as="offset" />
          </mxGeometry>
        </mxCell>
        <mxCell id="WtABkWI_3HAptQARrJdj-2" value="" style="edgeStyle=orthogonalEdgeStyle;rounded=0;orthogonalLoop=1;jettySize=auto;html=1;fontSize=17;fontColor=#000000;exitX=1;exitY=0.5;exitDx=0;exitDy=0;" parent="1" source="_UQgza68TpKPNs5CrHff-51" edge="1">
          <mxGeometry relative="1" as="geometry">
            <Array as="points" />
            <mxPoint x="1009.5" y="995" as="sourcePoint" />
            <mxPoint x="1102.5" y="995" as="targetPoint" />
          </mxGeometry>
        </mxCell>
        <mxCell id="WtABkWI_3HAptQARrJdj-8" value="RequestSend" style="edgeLabel;html=1;align=center;verticalAlign=middle;resizable=0;points=[];" parent="WtABkWI_3HAptQARrJdj-2" vertex="1" connectable="0">
          <mxGeometry x="-0.1962" y="3" relative="1" as="geometry">
            <mxPoint as="offset" />
          </mxGeometry>
        </mxCell>
        <mxCell id="WtABkWI_3HAptQARrJdj-3" value="" style="edgeStyle=orthogonalEdgeStyle;rounded=0;orthogonalLoop=1;jettySize=auto;html=1;fontSize=17;fontColor=#000000;" parent="1" source="_UQgza68TpKPNs5CrHff-51" edge="1">
          <mxGeometry relative="1" as="geometry">
            <Array as="points">
              <mxPoint x="1082" y="1050" />
            </Array>
            <mxPoint x="1009.5" y="1049.5" as="sourcePoint" />
            <mxPoint x="1102.5" y="1049.5" as="targetPoint" />
          </mxGeometry>
        </mxCell>
        <mxCell id="WtABkWI_3HAptQARrJdj-9" value="RequestSend" style="edgeLabel;html=1;align=center;verticalAlign=middle;resizable=0;points=[];" parent="WtABkWI_3HAptQARrJdj-3" vertex="1" connectable="0">
          <mxGeometry x="0.6077" y="44" relative="1" as="geometry">
            <mxPoint x="-44" y="44" as="offset" />
          </mxGeometry>
        </mxCell>
        <mxCell id="WtABkWI_3HAptQARrJdj-4" value="KafkaChannel" style="rounded=0;whiteSpace=wrap;html=1;fontSize=15;fontColor=#000000;" parent="1" vertex="1">
          <mxGeometry x="1102.5" y="930" width="105" height="30" as="geometry" />
        </mxCell>
        <mxCell id="WtABkWI_3HAptQARrJdj-5" value="KafkaChannel" style="rounded=0;whiteSpace=wrap;html=1;fontSize=15;fontColor=#000000;" parent="1" vertex="1">
          <mxGeometry x="1102.5" y="980" width="105" height="30" as="geometry" />
        </mxCell>
        <mxCell id="WtABkWI_3HAptQARrJdj-6" value="KafkaChannel" style="rounded=0;whiteSpace=wrap;html=1;fontSize=15;fontColor=#000000;" parent="1" vertex="1">
          <mxGeometry x="1102.5" y="1035" width="105" height="30" as="geometry" />
        </mxCell>
        <mxCell id="WtABkWI_3HAptQARrJdj-10" value="8" style="ellipse;whiteSpace=wrap;html=1;aspect=fixed;fillColor=#ffe6cc;strokeColor=#d79b00;fontSize=13;fontStyle=1;fontColor=#FF3333;" parent="1" vertex="1">
          <mxGeometry x="1030" y="910" width="20" height="20" as="geometry" />
        </mxCell>
        <mxCell id="WtABkWI_3HAptQARrJdj-11" value="9" style="ellipse;whiteSpace=wrap;html=1;aspect=fixed;fillColor=#ffe6cc;strokeColor=#d79b00;fontSize=13;fontStyle=1;fontColor=#FF3333;" parent="1" vertex="1">
          <mxGeometry x="1070" y="740" width="20" height="20" as="geometry" />
        </mxCell>
        <mxCell id="WtABkWI_3HAptQARrJdj-12" value="10" style="ellipse;whiteSpace=wrap;html=1;aspect=fixed;fillColor=#ffe6cc;strokeColor=#d79b00;fontSize=13;fontStyle=1;fontColor=#FF3333;" parent="1" vertex="1">
          <mxGeometry x="1220" y="740" width="20" height="20" as="geometry" />
        </mxCell>
        <mxCell id="WtABkWI_3HAptQARrJdj-18" value="10" style="ellipse;whiteSpace=wrap;html=1;aspect=fixed;fillColor=#ffe6cc;strokeColor=#d79b00;fontSize=13;fontStyle=1;fontColor=#FF3333;" parent="1" vertex="1">
          <mxGeometry x="1013" y="1070" width="20" height="20" as="geometry" />
        </mxCell>
        <mxCell id="WtABkWI_3HAptQARrJdj-21" value="" style="edgeStyle=orthogonalEdgeStyle;rounded=0;orthogonalLoop=1;jettySize=auto;html=1;" parent="1" edge="1">
          <mxGeometry relative="1" as="geometry">
            <mxPoint x="852" y="910" as="sourcePoint" />
            <mxPoint x="852" y="840" as="targetPoint" />
            <Array as="points">
              <mxPoint x="852" y="880" />
              <mxPoint x="852" y="880" />
            </Array>
          </mxGeometry>
        </mxCell>
        <mxCell id="WtABkWI_3HAptQARrJdj-24" value="&lt;font style=&quot;font-size: 14px&quot; color=&quot;#ff3333&quot;&gt;执行绑定的回调函数&lt;/font&gt;" style="edgeLabel;html=1;align=center;verticalAlign=middle;resizable=0;points=[];" parent="WtABkWI_3HAptQARrJdj-21" vertex="1" connectable="0">
          <mxGeometry x="-0.2314" y="3" relative="1" as="geometry">
            <mxPoint y="-13" as="offset" />
          </mxGeometry>
        </mxCell>
        <mxCell id="WtABkWI_3HAptQARrJdj-25" value="11" style="ellipse;whiteSpace=wrap;html=1;aspect=fixed;fillColor=#ffe6cc;strokeColor=#d79b00;fontSize=13;fontStyle=1;fontColor=#FF3333;" parent="1" vertex="1">
          <mxGeometry x="925" y="850" width="20" height="20" as="geometry" />
        </mxCell>
        <mxCell id="WtABkWI_3HAptQARrJdj-26" value="主线程" style="text;html=1;strokeColor=none;fillColor=none;align=center;verticalAlign=middle;whiteSpace=wrap;rounded=0;fontSize=14;fontStyle=1;fontColor=#FF3333;" parent="1" vertex="1">
          <mxGeometry x="310" y="380" width="50" height="20" as="geometry" />
        </mxCell>
        <mxCell id="WtABkWI_3HAptQARrJdj-29" value="Sender线程" style="text;html=1;strokeColor=none;fillColor=none;align=center;verticalAlign=middle;whiteSpace=wrap;rounded=0;fontSize=13;fontColor=#FF3333;fontStyle=1" parent="1" vertex="1">
          <mxGeometry x="345" y="880" width="75" height="20" as="geometry" />
        </mxCell>
        <mxCell id="WtABkWI_3HAptQARrJdj-30" value="Selector" style="text;html=1;strokeColor=none;fillColor=none;align=center;verticalAlign=middle;whiteSpace=wrap;rounded=0;fontSize=13;fontColor=#FF3333;fontStyle=1" parent="1" vertex="1">
          <mxGeometry x="1130" y="900" width="75" height="20" as="geometry" />
        </mxCell>
        <mxCell id="WtABkWI_3HAptQARrJdj-32" value="topic p0" style="rounded=0;whiteSpace=wrap;html=1;fontSize=14;fillColor=#e1d5e7;strokeColor=#9673a6;" parent="1" vertex="1">
          <mxGeometry x="830" y="590" width="80" height="60" as="geometry" />
        </mxCell>
        <mxCell id="WtABkWI_3HAptQARrJdj-33" value="topic p1" style="rounded=0;whiteSpace=wrap;html=1;fontSize=14;fillColor=#e1d5e7;strokeColor=#9673a6;" parent="1" vertex="1">
          <mxGeometry x="830" y="675" width="80" height="60" as="geometry" />
        </mxCell>
        <mxCell id="WtABkWI_3HAptQARrJdj-34" value="topic p2" style="rounded=0;whiteSpace=wrap;html=1;fontSize=14;fillColor=#e1d5e7;strokeColor=#9673a6;" parent="1" vertex="1">
          <mxGeometry x="830" y="765" width="80" height="60" as="geometry" />
        </mxCell>
        <mxCell id="WtABkWI_3HAptQARrJdj-35" value="" style="edgeStyle=orthogonalEdgeStyle;rounded=0;orthogonalLoop=1;jettySize=auto;html=1;fontSize=14;fontColor=#FF3333;" parent="1" source="_UQgza68TpKPNs5CrHff-13" target="WtABkWI_3HAptQARrJdj-32" edge="1">
          <mxGeometry relative="1" as="geometry" />
        </mxCell>
        <mxCell id="WtABkWI_3HAptQARrJdj-36" value="" style="edgeStyle=orthogonalEdgeStyle;rounded=0;orthogonalLoop=1;jettySize=auto;html=1;fontSize=14;fontColor=#FF3333;" parent="1" source="_UQgza68TpKPNs5CrHff-21" target="WtABkWI_3HAptQARrJdj-33" edge="1">
          <mxGeometry relative="1" as="geometry" />
        </mxCell>
        <mxCell id="WtABkWI_3HAptQARrJdj-37" value="" style="edgeStyle=orthogonalEdgeStyle;rounded=0;orthogonalLoop=1;jettySize=auto;html=1;fontSize=14;fontColor=#FF3333;" parent="1" source="_UQgza68TpKPNs5CrHff-27" target="WtABkWI_3HAptQARrJdj-34" edge="1">
          <mxGeometry relative="1" as="geometry" />
        </mxCell>
        <mxCell id="WtABkWI_3HAptQARrJdj-38" value="默认32M" style="text;html=1;strokeColor=none;fillColor=none;align=center;verticalAlign=middle;whiteSpace=wrap;rounded=0;fontSize=14;fontColor=#FF3333;" parent="1" vertex="1">
          <mxGeometry x="592.5" y="557" width="165" height="20" as="geometry" />
        </mxCell>
        <mxCell id="WtABkWI_3HAptQARrJdj-42" value="1.初始化了很多重要参数&lt;br&gt;2.初始化了很多核心组件&lt;br&gt;3.启动了sender线程&lt;br&gt;&lt;div&gt;&lt;span&gt;4.初始化的时候并没有去拉取集群的元数据&lt;/span&gt;&lt;/div&gt;" style="text;html=1;strokeColor=none;fillColor=none;align=left;verticalAlign=middle;whiteSpace=wrap;rounded=0;fontSize=12;fontColor=#FF3333;" parent="1" vertex="1">
          <mxGeometry x="230" y="450" width="180" height="20" as="geometry" />
        </mxCell>
        <mxCell id="lW8rJA3qu8yYSHlR9bYw-2" value="仅发送给分区1" style="text;html=1;strokeColor=none;fillColor=none;align=center;verticalAlign=middle;whiteSpace=wrap;rounded=0;" vertex="1" parent="1">
          <mxGeometry x="777.5" y="675" width="55" height="20" as="geometry" />
        </mxCell>
        <mxCell id="lW8rJA3qu8yYSHlR9bYw-3" value="仅发送给分区2" style="text;html=1;strokeColor=none;fillColor=none;align=center;verticalAlign=middle;whiteSpace=wrap;rounded=0;" vertex="1" parent="1">
          <mxGeometry x="776" y="765" width="55" height="20" as="geometry" />
        </mxCell>
      </root>
    </mxGraphModel>
  </diagram>
</mxfile>
